<svg width="32" height="32" viewBox="0 0 32 32" fill="none" xmlns="http://www.w3.org/2000/svg">
<path d="M29.4996 12.585C29.5001 12.3881 29.4616 12.193 29.3863 12.0111C29.311 11.8292 29.2004 11.664 29.0609 11.525L20.4746 2.93874C20.3353 2.7989 20.1697 2.68795 19.9874 2.61224C19.805 2.53653 19.6095 2.49756 19.4121 2.49756C19.2147 2.49756 19.0192 2.53653 18.8369 2.61224C18.6546 2.68795 18.489 2.7989 18.3496 2.93874L14.7221 6.56999L7.36463 9.32874C7.11846 9.42166 6.90091 9.5774 6.73359 9.78046C6.56627 9.98353 6.45501 10.2269 6.41088 10.4862L3.50588 27.9175C3.49388 27.9892 3.49767 28.0626 3.51696 28.1327C3.53626 28.2028 3.57061 28.2678 3.61761 28.3233C3.66461 28.3787 3.72314 28.4233 3.78912 28.4538C3.8551 28.4843 3.92693 28.5001 3.99963 28.5C4.02724 28.4998 4.0548 28.4977 4.08213 28.4937L21.5121 25.5875C21.7719 25.5444 22.0157 25.4337 22.2191 25.2665C22.4225 25.0993 22.5783 24.8815 22.6709 24.635L25.4296 17.2775L29.0546 13.6525C29.1962 13.5132 29.3085 13.347 29.3849 13.1637C29.4613 12.9804 29.5003 12.7836 29.4996 12.585ZM21.7346 24.2837C21.7038 24.3659 21.6518 24.4385 21.584 24.4942C21.5162 24.55 21.435 24.5869 21.3484 24.6012L5.45713 27.25L12.7634 19.9437C13.3765 20.3795 14.131 20.569 14.8772 20.4747C15.6235 20.3804 16.3071 20.0093 16.7926 19.4348C17.2781 18.8602 17.5301 18.1243 17.4986 17.3728C17.4671 16.6212 17.1544 15.9089 16.6226 15.3771C16.0907 14.8452 15.3784 14.5325 14.6269 14.501C13.8753 14.4695 13.1394 14.7215 12.5649 15.207C11.9903 15.6925 11.6192 16.3761 11.5249 17.1224C11.4306 17.8687 11.6201 18.6231 12.0559 19.2362L4.74963 26.5437L7.39838 10.6512C7.41274 10.5647 7.44965 10.4834 7.50538 10.4156C7.56111 10.3478 7.63371 10.2958 7.71588 10.265L14.8746 7.57999L24.4184 17.125L21.7346 24.2837ZM12.4996 17.5C12.4996 17.1044 12.6169 16.7177 12.8367 16.3888C13.0565 16.06 13.3688 15.8036 13.7343 15.6522C14.0997 15.5009 14.5018 15.4612 14.8898 15.5384C15.2778 15.6156 15.6341 15.8061 15.9138 16.0858C16.1935 16.3655 16.384 16.7218 16.4612 17.1098C16.5384 17.4978 16.4988 17.8999 16.3474 18.2654C16.196 18.6308 15.9397 18.9432 15.6108 19.1629C15.2819 19.3827 14.8952 19.5 14.4996 19.5C13.9692 19.5 13.4605 19.2893 13.0854 18.9142C12.7103 18.5391 12.4996 18.0304 12.4996 17.5ZM28.3534 12.9387L24.9996 16.2925L15.7071 6.99999L19.0596 3.64749C19.1061 3.601 19.1612 3.56412 19.2219 3.53896C19.2826 3.5138 19.3477 3.50085 19.4134 3.50085C19.4791 3.50085 19.5441 3.5138 19.6048 3.53896C19.6655 3.56412 19.7207 3.601 19.7671 3.64749L28.3534 12.2337C28.4469 12.3275 28.4994 12.4545 28.4994 12.5869C28.4994 12.7193 28.4469 12.8463 28.3534 12.94V12.9387Z" fill="#828282"/>
</svg>
