<svg width="512" height="512" viewBox="0 0 512 512" fill="none" xmlns="http://www.w3.org/2000/svg">
<path d="M224 146.312H128V386.312H384V134.938L224 294.938V146.312ZM368 370.312H171.375L368 173.688V370.312ZM164.625 354.312L148.625 370.312H144V162.312H208V178.312H176V194.312H208V210.312H176V226.312H208V242.312H160V258.312H208V274.312H176V290.312H208V306.312H176V322.312H196.625L180.625 338.312H160V354.312H164.625ZM336 262.938L260.625 338.312H336V262.938ZM320 301.688V322.312H299.375L320 301.688Z" fill="white"/>
</svg>
