<svg width="295" height="295" viewBox="0 0 295 295" fill="none" xmlns="http://www.w3.org/2000/svg">
<g clip-path="url(#clip0_64_647)">
<path d="M146.388 33.8552L152.121 28.1217L146.388 22.3882L140.654 28.1217L146.388 33.8552ZM261.058 148.525L266.791 154.259L272.525 148.525L266.791 142.792L261.058 148.525ZM126.011 110.351C128.036 109.661 129.706 108.198 130.657 106.281C131.608 104.365 131.764 102.15 131.089 100.12C130.414 98.0893 128.964 96.4079 127.055 95.4419C125.146 94.476 122.932 94.3037 120.897 94.9628L126.011 110.351ZM54.7206 125.522L52.152 117.839L47.118 119.525L46.6479 124.811L54.7206 125.522ZM43.2881 251.625L35.2153 250.891C35.1061 252.076 35.2592 253.271 35.6637 254.39C36.0683 255.51 36.7143 256.527 37.556 257.368C38.3977 258.21 39.4144 258.856 40.5338 259.261C41.6533 259.665 42.8481 259.818 44.0334 259.709L43.2881 251.625ZM169.379 240.204L170.113 248.276L175.399 247.806L177.085 242.772L169.391 240.215L169.379 240.204ZM199.95 174.016C200.609 171.981 200.437 169.767 199.471 167.858C198.505 165.949 196.823 164.499 194.793 163.824C192.763 163.149 190.548 163.304 188.631 164.255C186.715 165.207 185.252 166.877 184.561 168.902L199.95 174.016ZM106.322 200.058L112.056 194.324L100.589 182.857L94.8551 188.591L106.322 200.058ZM152.156 142.757C145.378 135.986 140.001 127.946 136.331 119.096C132.662 110.246 130.771 100.76 130.768 91.18C130.765 81.5997 132.649 72.1125 136.313 63.2604C139.977 54.4082 145.348 46.3645 152.121 39.5887L140.654 28.1217C132.376 36.4034 125.809 46.2348 121.331 57.0545C116.852 67.8741 114.548 79.4701 114.551 91.18C114.555 102.89 116.864 114.485 121.349 125.302C125.834 136.119 132.405 145.947 140.689 154.224L152.156 142.757ZM140.654 39.5887L255.324 154.259L266.791 142.792L152.121 28.1217L140.654 39.5887ZM255.324 142.792C248.548 149.564 240.505 154.936 231.652 158.6C222.8 162.264 213.313 164.148 203.733 164.145C194.152 164.141 184.666 162.251 175.817 158.581C166.967 154.912 158.927 149.535 152.156 142.757L140.689 154.224C175.525 189.061 231.966 189.084 266.791 154.259L255.324 142.792ZM120.897 94.9628L52.152 117.839L57.2778 133.24L126.011 110.351L120.897 94.9628ZM46.6364 124.8L35.2153 250.891L51.3723 252.37L62.7934 126.279L46.6364 124.8ZM44.0219 259.697L170.113 248.276L168.645 232.131L42.5542 243.552L44.0334 259.709L44.0219 259.697ZM177.085 242.772L199.961 174.028L184.561 168.902L161.685 237.646L177.085 242.772ZM49.033 257.347L106.322 200.058L94.8551 188.591L37.5546 245.891L49.0215 257.358L49.033 257.347Z" fill="#262626"/>
</g>
<defs>
<clipPath id="clip0_64_647">
<rect width="295" height="295" fill="white"/>
</clipPath>
</defs>
</svg>
